<svg width="1024" height="1024" viewBox="0 0 1024 1024" fill="none" xmlns="http://www.w3.org/2000/svg">
  <defs>
    <linearGradient id="bgGlow" x1="160" y1="120" x2="880" y2="920" gradientUnits="userSpaceOnUse">
      <stop offset="0" stop-color="#111827"/>
      <stop offset="0.5" stop-color="#0B1020"/>
      <stop offset="1" stop-color="#06080F"/>
    </linearGradient>

    <radialGradient id="coreGlow" cx="0" cy="0" r="1" gradientUnits="userSpaceOnUse"
      gradientTransform="translate(512 512) rotate(90) scale(360)">
      <stop offset="0" stop-color="#1EEBFF" stop-opacity="0.22"/>
      <stop offset="0.45" stop-color="#7C3AED" stop-opacity="0.14"/>
      <stop offset="1" stop-color="#7C3AED" stop-opacity="0"/>
    </radialGradient>

    <linearGradient id="mainStroke" x1="280" y1="250" x2="760" y2="760" gradientUnits="userSpaceOnUse">
      <stop offset="0" stop-color="#4AF3FF"/>
      <stop offset="0.55" stop-color="#38BDF8"/>
      <stop offset="1" stop-color="#8B5CF6"/>
    </linearGradient>

    <linearGradient id="accentStroke" x1="340" y1="320" x2="730" y2="720" gradientUnits="userSpaceOnUse">
      <stop offset="0" stop-color="#A7F3FF"/>
      <stop offset="1" stop-color="#C084FC"/>
    </linearGradient>

    <filter id="softGlow" x="-50%" y="-50%" width="200%" height="200%">
      <feGaussianBlur stdDeviation="12" result="blur"/>
      <feMerge>
        <feMergeNode in="blur"/>
        <feMergeNode in="SourceGraphic"/>
      </feMerge>
    </filter>

    <filter id="outerGlow" x="-60%" y="-60%" width="220%" height="220%">
      <feGaussianBlur stdDeviation="22" result="blur"/>
      <feColorMatrix in="blur" type="matrix"
        values="1 0 0 0 0
                0 1 0 0 0
                0 0 1 0 0
                0 0 0 0.30 0"/>
      <feMerge>
        <feMergeNode/>
        <feMergeNode in="SourceGraphic"/>
      </feMerge>
    </filter>

    <clipPath id="clip">
      <rect x="96" y="96" width="832" height="832" rx="220"/>
    </clipPath>
  </defs>

  <!-- background -->
  <rect x="96" y="96" width="832" height="832" rx="220" fill="url(#bgGlow)"/>
  <rect x="96" y="96" width="832" height="832" rx="220" fill="url(#coreGlow)"/>

  <!-- subtle geek grid -->
  <g clip-path="url(#clip)" opacity="0.16">
    <path d="M160 256H864" stroke="#5EEBFF" stroke-width="1"/>
    <path d="M160 384H864" stroke="#5EEBFF" stroke-width="1"/>
    <path d="M160 512H864" stroke="#5EEBFF" stroke-width="1"/>
    <path d="M160 640H864" stroke="#5EEBFF" stroke-width="1"/>
    <path d="M160 768H864" stroke="#5EEBFF" stroke-width="1"/>

    <path d="M256 160V864" stroke="#8B5CF6" stroke-width="1"/>
    <path d="M384 160V864" stroke="#8B5CF6" stroke-width="1"/>
    <path d="M512 160V864" stroke="#8B5CF6" stroke-width="1"/>
    <path d="M640 160V864" stroke="#8B5CF6" stroke-width="1"/>
    <path d="M768 160V864" stroke="#8B5CF6" stroke-width="1"/>
  </g>

  <!-- outer frame / tech shell -->
  <g opacity="0.88" filter="url(#softGlow)">
    <path d="M332 220H692L804 332V692L692 804H332L220 692V332L332 220Z"
      stroke="url(#mainStroke)" stroke-width="20" stroke-linejoin="round" opacity="0.42"/>
    <path d="M332 220H420" stroke="#4AF3FF" stroke-width="12" stroke-linecap="round"/>
    <path d="M604 220H692" stroke="#8B5CF6" stroke-width="12" stroke-linecap="round"/>
    <path d="M804 332V420" stroke="#4AF3FF" stroke-width="12" stroke-linecap="round"/>
    <path d="M804 604V692" stroke="#8B5CF6" stroke-width="12" stroke-linecap="round"/>
    <path d="M332 804H420" stroke="#4AF3FF" stroke-width="12" stroke-linecap="round"/>
    <path d="M604 804H692" stroke="#8B5CF6" stroke-width="12" stroke-linecap="round"/>
    <path d="M220 332V420" stroke="#4AF3FF" stroke-width="12" stroke-linecap="round"/>
    <path d="M220 604V692" stroke="#8B5CF6" stroke-width="12" stroke-linecap="round"/>
  </g>

  <!-- route / cue symbol -->
  <g filter="url(#outerGlow)">
    <!-- broken C orbit -->
    <path d="M682 340
             C642 300 585 276 522 276
             C392 276 288 381 288 512
             C288 643 392 748 522 748
             C585 748 642 724 682 684"
      stroke="url(#mainStroke)"
      stroke-width="54"
      stroke-linecap="round"
      stroke-linejoin="round"/>

    <!-- diagonal run slash -->
    <path d="M430 648L610 468"
      stroke="url(#accentStroke)"
      stroke-width="58"
      stroke-linecap="round"/>

    <!-- cue dot -->
    <circle cx="670" cy="412" r="44" fill="url(#mainStroke)"/>

    <!-- inner highlight -->
    <circle cx="655" cy="398" r="14" fill="#E6FBFF" opacity="0.95"/>
  </g>

  <!-- small circuit accents -->
  <g opacity="0.9">
    <path d="M670 412H770" stroke="url(#mainStroke)" stroke-width="12" stroke-linecap="round"/>
    <circle cx="796" cy="412" r="10" fill="#4AF3FF"/>

    <path d="M356 640H290" stroke="url(#accentStroke)" stroke-width="10" stroke-linecap="round"/>
    <circle cx="268" cy="640" r="8" fill="#A7F3FF"/>

    <path d="M512 276V216" stroke="url(#mainStroke)" stroke-width="10" stroke-linecap="round"/>
    <circle cx="512" cy="192" r="8" fill="#8B5CF6"/>

    <path d="M512 748V808" stroke="url(#mainStroke)" stroke-width="10" stroke-linecap="round"/>
    <circle cx="512" cy="832" r="8" fill="#4AF3FF"/>
  </g>

  <!-- subtle inner panel -->
  <rect x="132" y="132" width="760" height="760" rx="184"
    stroke="rgba(255,255,255,0.08)" stroke-width="2"/>

  <!-- gloss -->
  <path d="M246 292C302 214 396 168 500 168H614"
    stroke="rgba(255,255,255,0.10)" stroke-width="16" stroke-linecap="round"/>
</svg>