<svg xmlns="http://www.w3.org/2000/svg" viewBox="0 0 1280 930" width="1280" height="930">
<style>text{font-family:'Helvetica Neue',Helvetica,Arial,sans-serif;letter-spacing:0}.title{font-size:32px;font-weight:700;fill:#111827}.subtitle{font-size:14px;fill:#6b7280}.container-label{font-size:14px;font-weight:700;fill:#2563eb;letter-spacing:3px}</style>
<defs>
<marker id="arrow-read" markerWidth="10" markerHeight="7" refX="9" refY="3.5" orient="auto"><polygon points="0 0,10 3.5,0 7" fill="#2563eb"/></marker>
<marker id="arrow-control" markerWidth="10" markerHeight="7" refX="9" refY="3.5" orient="auto"><polygon points="0 0,10 3.5,0 7" fill="#7c3aed"/></marker>
<marker id="arrow-data" markerWidth="10" markerHeight="7" refX="9" refY="3.5" orient="auto"><polygon points="0 0,10 3.5,0 7" fill="#f97316"/></marker>
<marker id="arrow-feedback" markerWidth="10" markerHeight="7" refX="9" refY="3.5" orient="auto"><polygon points="0 0,10 3.5,0 7" fill="#dc2626"/></marker>
<marker id="arrow-neutral" markerWidth="10" markerHeight="7" refX="9" refY="3.5" orient="auto"><polygon points="0 0,10 3.5,0 7" fill="#6b7280"/></marker>
<filter id="shadow" x="-12%" y="-16%" width="124%" height="136%"><feDropShadow dx="0" dy="4" stdDeviation="5" flood-color="#0f172a" flood-opacity="0.10"/></filter>
</defs>
<rect width="1280" height="930" fill="#ffffff"/>
<text class="title" x="640.0" y="48" text-anchor="middle">RunCue v2 Architecture</text>
<text class="subtitle" x="640.0" y="76" text-anchor="middle">WDA-only iOS UI navigation with tree-first observation, visual fallback, and verifier-driven closure</text>
<rect x="40" y="104" width="1200" height="112" rx="16" fill="#eff6ff" stroke="#bfdbfe" stroke-width="1.4" stroke-dasharray="6 5" opacity="0.94"/>
<text class="container-label" x="58" y="130">CALLER + BUILD TOOLING</text>
<rect x="40" y="250" width="930" height="220" rx="16" fill="#faf5ff" stroke="#ddd6fe" stroke-width="1.4" stroke-dasharray="6 5" opacity="0.94"/>
<text class="container-label" x="58" y="276">RUNCUE SURFACE + AGENT LOOP</text>
<rect x="1000" y="250" width="240" height="220" rx="16" fill="#fff7ed" stroke="#fed7aa" stroke-width="1.4" stroke-dasharray="6 5" opacity="0.94"/>
<text class="container-label" x="1018" y="276">VL PROVIDER</text>
<rect x="40" y="510" width="930" height="130" rx="16" fill="#f0fdf4" stroke="#bbf7d0" stroke-width="1.4" stroke-dasharray="6 5" opacity="0.94"/>
<text class="container-label" x="58" y="536">WDA DEVICE CONTROL</text>
<rect x="40" y="680" width="1200" height="112" rx="16" fill="#f9fafb" stroke="#e5e7eb" stroke-width="1.4" stroke-dasharray="6 5" opacity="0.94"/>
<text class="container-label" x="58" y="706">XCODE + IOS RUNTIME</text>
<path d="M 212.0 163.0 L 294.0 163.0" fill="none" stroke="#7c3aed" stroke-width="2.2" marker-end="url(#arrow-control)" opacity="0.9"/>
<path d="M 212.0 146.0 L 520.0 146.0 L 520.0 163.0 L 564.0 163.0" fill="none" stroke="#2563eb" stroke-width="2.2" marker-end="url(#arrow-read)" opacity="0.9"/>
<path d="M 916.0 216.0 L 916.0 238.0 L 168.0 238.0 L 168.0 316.0" fill="none" stroke="#2563eb" stroke-width="2.2" marker-end="url(#arrow-read)" opacity="0.9"/>
<path d="M 659.0 198.0 L 659.0 232.0 L 168.0 232.0 L 168.0 316.0" fill="none" stroke="#2563eb" stroke-width="2.2" marker-end="url(#arrow-read)" opacity="0.9"/>
<path d="M 1134.0 216.0 L 1134.0 492.0 L 430.0 492.0 L 430.0 548.0" fill="none" stroke="#7c3aed" stroke-width="2.2" marker-end="url(#arrow-control)" opacity="0.9"/>
<path d="M 250.0 360.0 L 306.0 329.0" fill="none" stroke="#2563eb" stroke-width="2.2" marker-end="url(#arrow-read)" opacity="0.9"/>
<path d="M 468.0 329.0 L 526.0 323.0" fill="none" stroke="#f97316" stroke-width="2.2" marker-end="url(#arrow-data)" opacity="0.9"/>
<path d="M 694.0 323.0 L 742.0 324.0" fill="none" stroke="#7c3aed" stroke-width="2.2" marker-end="url(#arrow-control)" opacity="0.9"/>
<path d="M 829.0 362.0 L 829.0 384.0" fill="none" stroke="#7c3aed" stroke-width="2.2" marker-end="url(#arrow-control)" opacity="0.9"/>
<path d="M 829.0 470.0 L 829.0 490.0 L 183.0 490.0 L 183.0 546.0" fill="none" stroke="#7c3aed" stroke-width="2.2" marker-end="url(#arrow-control)" opacity="0.9"/>
<path d="M 526.0 414.0 L 468.0 414.0 L 468.0 446.0 L 250.0 446.0 L 250.0 360.0" fill="none" stroke="#dc2626" stroke-width="2.2" stroke-dasharray="6 4" marker-end="url(#arrow-feedback)" opacity="0.9"/>
<path d="M 694.0 304.0 L 1018.0 304.0 L 1018.0 346.0 L 1042.0 346.0" fill="none" stroke="#f97316" stroke-width="2.2" marker-end="url(#arrow-data)" opacity="0.9"/>
<path d="M 916.0 324.0 L 1018.0 324.0 L 1018.0 362.0 L 1042.0 362.0" fill="none" stroke="#f97316" stroke-width="2.2" marker-end="url(#arrow-data)" opacity="0.9"/>
<path d="M 694.0 414.0 L 1018.0 414.0 L 1018.0 382.0 L 1042.0 382.0" fill="none" stroke="#f97316" stroke-width="2.2" marker-end="url(#arrow-data)" opacity="0.9"/>
<path d="M 270.0 579.0 L 346.0 579.0" fill="none" stroke="#7c3aed" stroke-width="2.2" marker-end="url(#arrow-control)" opacity="0.9"/>
<path d="M 270.0 586.0 L 570.0 586.0 L 570.0 579.0 L 594.0 579.0" fill="none" stroke="#2563eb" stroke-width="2.2" marker-end="url(#arrow-read)" opacity="0.9"/>
<path d="M 514.0 579.0 L 812.0 581.0" fill="none" stroke="#7c3aed" stroke-width="2.2" marker-end="url(#arrow-control)" opacity="0.9"/>
<path d="M 874.0 640.0 L 874.0 662.0 L 166.0 662.0 L 166.0 714.0" fill="none" stroke="#7c3aed" stroke-width="2.2" marker-end="url(#arrow-control)" opacity="0.9"/>
<path d="M 383.0 216.0 L 383.0 664.0 L 679.0 664.0 L 679.0 714.0" fill="none" stroke="#7c3aed" stroke-width="2.2" marker-end="url(#arrow-control)" opacity="0.9"/>
<path d="M 246.0 743.0 L 326.0 743.0" fill="none" stroke="#7c3aed" stroke-width="2.2" marker-end="url(#arrow-control)" opacity="0.9"/>
<path d="M 506.0 743.0 L 594.0 743.0" fill="none" stroke="#7c3aed" stroke-width="2.2" marker-end="url(#arrow-control)" opacity="0.9"/>
<path d="M 676.0 640.0 L 676.0 664.0 L 416.0 664.0 L 416.0 714.0" fill="none" stroke="#2563eb" stroke-width="2.2" marker-end="url(#arrow-read)" opacity="0.9"/>
<path d="M 764.0 743.0 L 842.0 743.0" fill="none" stroke="#7c3aed" stroke-width="2.2" marker-end="url(#arrow-control)" opacity="0.9"/>
<path d="M 1006.0 743.0 L 1062.0 743.0" fill="none" stroke="#dc2626" stroke-width="2.2" stroke-dasharray="6 4" marker-end="url(#arrow-feedback)" opacity="0.9"/>
<path d="M 1128.0 704.0 L 1128.0 666.0 L 388.0 666.0 L 388.0 364.0" fill="none" stroke="#dc2626" stroke-width="2.2" stroke-dasharray="6 4" marker-end="url(#arrow-feedback)" opacity="0.9"/>
<rect x="76" y="134" width="136" height="58" rx="10" fill="#ffffff" stroke="#2563eb" stroke-width="2" filter="url(#shadow)"/>
<circle cx="106" cy="163.0" r="18" fill="#dbeafe" stroke="#2563eb" stroke-width="1.5"/>
<text x="140" y="151.0" text-anchor="start" font-size="16" font-weight="700" fill="#111827">Coding</text>
<text x="140" y="169.0" text-anchor="start" font-size="16" font-weight="700" fill="#111827">Agent</text>
<rect x="294" y="132" width="178" height="62" rx="10" fill="#ffffff" stroke="#60a5fa" stroke-width="2" filter="url(#shadow)"/>
<text x="383.0" y="154" text-anchor="middle" font-size="11" font-weight="700" fill="#9ca3af" letter-spacing="1.3">BUILD / RUN / LOGS</text>
<text x="383.0" y="165.0" text-anchor="middle" font-size="16" font-weight="700" fill="#111827">XcodeBuildMCP</text>
<rect x="564" y="128" width="190" height="70" rx="10" fill="#ffffff" stroke="#8b5cf6" stroke-width="2" filter="url(#shadow)"/>
<rect x="571" y="135" width="176" height="56" rx="7" fill="none" stroke="#8b5cf6" stroke-width="1.1" opacity="0.7"/>
<text x="659.0" y="150" text-anchor="middle" font-size="11" font-weight="700" fill="#9ca3af" letter-spacing="1.3">runcue_run / check</text>
<text x="659.0" y="165.0" text-anchor="middle" font-size="16" font-weight="700" fill="#111827">RunCue MCP</text>
<rect x="824" y="122" width="184" height="82" rx="10" fill="#111827" stroke="#374151" stroke-width="1.8" filter="url(#shadow)"/>
<rect x="824" y="122" width="184" height="18" rx="10" fill="#1f2937"/>
<circle cx="842" cy="131" r="4" fill="#ef4444"/>
<circle cx="856" cy="131" r="4" fill="#f59e0b"/>
<circle cx="870" cy="131" r="4" fill="#10b981"/>
<text x="916.0" y="160.0" text-anchor="middle" font-size="16" font-weight="700" fill="#f9fafb">RunCue CLI</text>
<rect x="1068" y="132" width="132" height="62" rx="10" fill="#ffffff" stroke="#f97316" stroke-width="2" filter="url(#shadow)"/>
<text x="1134.0" y="154" text-anchor="middle" font-size="11" font-weight="700" fill="#9ca3af" letter-spacing="1.3">CONFIG</text>
<text x="1134.0" y="165.0" text-anchor="middle" font-size="16" font-weight="700" fill="#111827">Doctor</text>
<path d="M 114 316 L 222 316 L 250 360.0 L 222 404 L 114 404 L 86 360.0 Z" fill="#ffffff" stroke="#8b5cf6" stroke-width="2" filter="url(#shadow)"/>
<text x="168.0" y="338" text-anchor="middle" font-size="11" font-weight="700" fill="#9ca3af" letter-spacing="1.3">CORE</text>
<text x="168.0" y="362.0" text-anchor="middle" font-size="16" font-weight="700" fill="#111827">Agent Loop</text>
<text x="168.0" y="392" text-anchor="middle" font-size="12" fill="#6b7280">observe / plan / act</text>
<rect x="306" y="294" width="162" height="70" rx="10" fill="#ffffff" stroke="#22c55e" stroke-width="2" filter="url(#shadow)"/>
<text x="387.0" y="316" text-anchor="middle" font-size="11" font-weight="700" fill="#9ca3af" letter-spacing="1.3">VIEW STATE</text>
<text x="387.0" y="331.0" text-anchor="middle" font-size="16" font-weight="700" fill="#111827">Observation</text>
<text x="387.0" y="352" text-anchor="middle" font-size="12" fill="#6b7280">tree-first / hybrid</text>
<rect x="526" y="284" width="168" height="78" rx="10" fill="#ffffff" stroke="#8b5cf6" stroke-width="2" filter="url(#shadow)"/>
<rect x="533" y="291" width="154" height="64" rx="7" fill="none" stroke="#8b5cf6" stroke-width="1.1" opacity="0.7"/>
<text x="610.0" y="306" text-anchor="middle" font-size="11" font-weight="700" fill="#9ca3af" letter-spacing="1.3">VL MODEL</text>
<text x="610.0" y="325.0" text-anchor="middle" font-size="16" font-weight="700" fill="#111827">Planner</text>
<text x="610.0" y="350" text-anchor="middle" font-size="12" fill="#6b7280">semantic target</text>
<rect x="742" y="286" width="174" height="76" rx="10" fill="#ffffff" stroke="#22c55e" stroke-width="2" filter="url(#shadow)"/>
<text x="829.0" y="308" text-anchor="middle" font-size="11" font-weight="700" fill="#9ca3af" letter-spacing="1.3">CURRENT SCREEN</text>
<text x="829.0" y="326.0" text-anchor="middle" font-size="16" font-weight="700" fill="#111827">Locator</text>
<text x="829.0" y="350" text-anchor="middle" font-size="12" fill="#6b7280">tree match + visual</text>
<rect x="526" y="384" width="168" height="60" rx="10" fill="#ffffff" stroke="#f97316" stroke-width="2" filter="url(#shadow)"/>
<text x="610.0" y="406" text-anchor="middle" font-size="11" font-weight="700" fill="#9ca3af" letter-spacing="1.3">STATE CHECK</text>
<text x="610.0" y="416.0" text-anchor="middle" font-size="16" font-weight="700" fill="#111827">Verifier</text>
<text x="610.0" y="432" text-anchor="middle" font-size="12" fill="#6b7280">complete / progress</text>
<rect x="742" y="384" width="174" height="60" rx="10" fill="#ffffff" stroke="#2563eb" stroke-width="2" filter="url(#shadow)"/>
<text x="829.0" y="406" text-anchor="middle" font-size="11" font-weight="700" fill="#9ca3af" letter-spacing="1.3">WDA ACTIONS</text>
<text x="829.0" y="416.0" text-anchor="middle" font-size="16" font-weight="700" fill="#111827">Action Executor</text>
<text x="829.0" y="432" text-anchor="middle" font-size="12" fill="#6b7280">tap / swipe / keys</text>
<rect x="1042" y="318" width="154" height="86" rx="10" fill="#ffffff" stroke="#f97316" stroke-width="2" filter="url(#shadow)"/>
<rect x="1049" y="325" width="140" height="72" rx="7" fill="none" stroke="#f97316" stroke-width="1.1" opacity="0.7"/>
<text x="1119.0" y="340" text-anchor="middle" font-size="11" font-weight="700" fill="#9ca3af" letter-spacing="1.3">DASHSCOPE</text>
<text x="1119.0" y="363.0" text-anchor="middle" font-size="16" font-weight="700" fill="#111827">Qwen VL</text>
<text x="1119.0" y="392" text-anchor="middle" font-size="12" fill="#6b7280">plan / locate / verify</text>
<rect x="96" y="546" width="174" height="66" rx="10" fill="#ffffff" stroke="#16a34a" stroke-width="2" filter="url(#shadow)"/>
<rect x="103" y="553" width="160" height="52" rx="7" fill="none" stroke="#16a34a" stroke-width="1.1" opacity="0.7"/>
<text x="183.0" y="568" text-anchor="middle" font-size="11" font-weight="700" fill="#9ca3af" letter-spacing="1.3">ONLY DEVICE PATH</text>
<text x="183.0" y="581.0" text-anchor="middle" font-size="16" font-weight="700" fill="#111827">WDADeviceAdapter</text>
<rect x="346" y="548" width="168" height="62" rx="10" fill="#ffffff" stroke="#16a34a" stroke-width="2" filter="url(#shadow)"/>
<text x="430.0" y="570" text-anchor="middle" font-size="11" font-weight="700" fill="#9ca3af" letter-spacing="1.3">BOOTSTRAP</text>
<text x="430.0" y="581.0" text-anchor="middle" font-size="16" font-weight="700" fill="#111827">WDAManager</text>
<text x="430.0" y="598" text-anchor="middle" font-size="12" fill="#6b7280">status / auto-start</text>
<rect x="594" y="548" width="164" height="62" rx="10" fill="#ffffff" stroke="#16a34a" stroke-width="2" filter="url(#shadow)"/>
<text x="676.0" y="570" text-anchor="middle" font-size="11" font-weight="700" fill="#9ca3af" letter-spacing="1.3">127.0.0.1:8100</text>
<text x="676.0" y="581.0" text-anchor="middle" font-size="16" font-weight="700" fill="#111827">WDA HTTP API</text>
<text x="676.0" y="598" text-anchor="middle" font-size="12" fill="#6b7280">source / actions</text>
<path d="M 812 558 L 854 558 L 864 544 L 936 544 L 936 618 L 812 618 Z" fill="#ecfdf5" stroke="#16a34a" stroke-width="2" filter="url(#shadow)"/>
<text x="874.0" y="578.0" text-anchor="middle" font-size="16" font-weight="700" fill="#111827">Bundled WDA</text>
<text x="874.0" y="606" text-anchor="middle" font-size="12" fill="#6b7280">project</text>
<rect x="86" y="714" width="160" height="58" rx="10" fill="#ffffff" stroke="#6b7280" stroke-width="2" filter="url(#shadow)"/>
<text x="166.0" y="736" text-anchor="middle" font-size="11" font-weight="700" fill="#9ca3af" letter-spacing="1.3">RUNNER</text>
<text x="166.0" y="745.0" text-anchor="middle" font-size="16" font-weight="700" fill="#111827">Xcode</text>
<text x="166.0" y="760" text-anchor="middle" font-size="12" fill="#6b7280">xcodebuild test</text>
<rect x="326" y="714" width="180" height="58" rx="10" fill="#ffffff" stroke="#6b7280" stroke-width="2" filter="url(#shadow)"/>
<text x="416.0" y="736" text-anchor="middle" font-size="11" font-weight="700" fill="#9ca3af" letter-spacing="1.3">IOS APP</text>
<text x="416.0" y="745.0" text-anchor="middle" font-size="16" font-weight="700" fill="#111827">WebDriverAgentRunner</text>
<text x="416.0" y="760" text-anchor="middle" font-size="12" fill="#6b7280">server on device</text>
<rect x="594" y="714" width="170" height="58" rx="10" fill="#ffffff" stroke="#6b7280" stroke-width="2" filter="url(#shadow)"/>
<text x="679.0" y="736" text-anchor="middle" font-size="11" font-weight="700" fill="#9ca3af" letter-spacing="1.3">TARGET</text>
<text x="679.0" y="736.0" text-anchor="middle" font-size="16" font-weight="700" fill="#111827">iOS Simulator /</text>
<text x="679.0" y="754.0" text-anchor="middle" font-size="16" font-weight="700" fill="#111827">Device</text>
<text x="679.0" y="760" text-anchor="middle" font-size="12" fill="#6b7280">UDID or device name</text>
<rect x="842" y="714" width="164" height="58" rx="10" fill="#ffffff" stroke="#6b7280" stroke-width="2" filter="url(#shadow)"/>
<text x="924.0" y="736" text-anchor="middle" font-size="11" font-weight="700" fill="#9ca3af" letter-spacing="1.3">UI UNDER TEST</text>
<text x="924.0" y="745.0" text-anchor="middle" font-size="16" font-weight="700" fill="#111827">Target App</text>
<text x="924.0" y="760" text-anchor="middle" font-size="12" fill="#6b7280">business or system</text>
<path d="M 1062 704 L 1176 704 L 1194 722 L 1194 782 L 1062 782 Z" fill="#ffffff" stroke="#6b7280" stroke-width="2" filter="url(#shadow)"/>
<path d="M 1176 704 L 1176 722 L 1194 722" fill="none" stroke="#6b7280" stroke-width="1.5"/>
<text x="1128.0" y="740.0" text-anchor="middle" font-size="16" font-weight="700" fill="#111827">Artifacts</text>
<text x="1128.0" y="770" text-anchor="middle" font-size="12" fill="#6b7280">tree / screenshots</text>
<rect x="988" y="794" width="260" height="96" rx="10" fill="#ffffff" stroke="#e5e7eb"/>
<line x1="1004" y1="818" x2="1034" y2="818" stroke="#2563eb" stroke-width="2.2" marker-end="url(#arrow-read)"/>
<text x="1046" y="822" font-size="12" fill="#4b5563">Observation / command path</text>
<line x1="1004" y1="839" x2="1034" y2="839" stroke="#7c3aed" stroke-width="2.2" marker-end="url(#arrow-control)"/>
<text x="1046" y="843" font-size="12" fill="#4b5563">Control / action path</text>
<line x1="1004" y1="860" x2="1034" y2="860" stroke="#f97316" stroke-width="2.2" marker-end="url(#arrow-data)"/>
<text x="1046" y="864" font-size="12" fill="#4b5563">VL reasoning call</text>
<line x1="1004" y1="881" x2="1034" y2="881" stroke="#dc2626" stroke-width="2.2" marker-end="url(#arrow-feedback)"/>
<text x="1046" y="885" font-size="12" fill="#4b5563">Runtime feedback</text>
<text x="42" y="910" font-size="12" fill="#94a3b8">No simctl backend, no clipboard paste path; WDA is the only iOS device control channel. </text>
</svg>